<?xml version="1.0" standalone="no"?>
<!DOCTYPE svg PUBLIC "-//W3C//DTD SVG 20010904//EN"
 "http://www.w3.org/TR/2001/REC-SVG-20010904/DTD/svg10.dtd">
<svg version="1.0" xmlns="http://www.w3.org/2000/svg"
 width="700.000000pt" height="700.000000pt" viewBox="0 0 700.000000 700.000000"
 preserveAspectRatio="xMidYMid meet">
<metadata>
Created by potrace 1.14, written by Peter Selinger 2001-2017
</metadata>
<g transform="translate(0.000000,700.000000) scale(0.100000,-0.100000)"
fill="#000000" stroke="none">
<path d="M0 3500 l0 -3500 3500 0 3500 0 0 210 0 210 -3240 0 -3240 0 -1 38
c0 20 0 1501 -1 3290 l0 3252 -259 0 -259 0 0 -3500z"/>
<path d="M1083 3935 l0 -3065 71 0 c270 -1 4688 1 5204 2 l642 2 0 723 0 723
-402 2 c-222 2 -990 4 -1708 6 l-1305 3 -17 -28 c-9 -15 -116 -126 -237 -246
-192 -190 -224 -218 -247 -215 -21 2 -30 10 -35 32 -8 27 3 40 201 240 l209
211 -227 5 -226 5 -1 2330 0 2330 -961 3 -961 2 0 -3065z m1826 -1034 c5 -9 5
-24 2 -34 -10 -26 -449 -465 -474 -473 -27 -9 -61 27 -52 55 6 21 409 433 453
463 26 18 59 13 71 -11z m-1 -549 c6 -9 12 -21 12 -28 0 -13 -673 -689 -701
-705 -25 -13 -69 24 -62 52 3 11 160 176 349 366 300 301 346 344 366 338 13
-4 29 -14 36 -23z"/>
<path d="M5635 5109 c-85 -44 -337 -174 -370 -192 -11 -6 -22 -12 -25 -12 -3
0 -34 -17 -70 -37 -36 -20 -121 -65 -190 -100 -123 -64 -266 -138 -465 -243
-118 -62 -300 -157 -475 -248 -216 -111 -324 -169 -356 -188 -36 -22 -48 -66
-27 -95 14 -19 15 -20 248 -100 301 -104 337 -115 354 -101 8 7 25 19 36 28
34 29 570 483 575 489 3 3 66 57 140 120 74 63 142 121 151 129 9 9 27 25 40
36 14 11 66 55 117 98 51 43 92 76 92 74 0 -3 -71 -90 -157 -194 -87 -105
-174 -209 -193 -233 -19 -24 -51 -62 -70 -85 -19 -22 -52 -61 -72 -85 -97
-118 -362 -438 -380 -458 -11 -13 -18 -25 -16 -27 2 -2 44 -17 93 -34 50 -16
209 -71 355 -121 383 -132 462 -158 492 -164 50 -9 72 24 84 124 2 14 5 39 8
55 3 17 8 48 11 70 3 22 7 49 10 60 2 11 7 43 10 70 3 28 10 73 15 100 5 28
16 101 25 163 9 62 18 121 20 130 2 10 6 45 10 77 7 60 10 77 20 125 2 14 7
45 10 70 2 25 7 56 9 70 3 14 7 43 11 65 11 72 35 239 39 270 3 17 8 53 12 80
3 28 8 58 10 67 1 9 6 46 9 81 6 61 6 65 -20 86 -15 11 -30 21 -34 21 -3 0
-42 -18 -86 -41z"/>
<path d="M4425 3363 c1 -115 4 -218 8 -230 8 -22 50 -42 77 -36 21 5 274 344
263 353 -7 7 -331 120 -344 120 -3 0 -5 -93 -4 -207z"/>
</g>
</svg>
